<?xml version="1.0" encoding="UTF-8"?>
<svg id="Layer_1" data-name="Layer 1" xmlns="http://www.w3.org/2000/svg" viewBox="0 0 160 160">
  <defs>
    <style>
      .cls-1 {
        fill: #000;
        stroke-width: 0px;
      }
    </style>
  </defs>
  <path class="cls-1" d="M365.83,75.82c1.13,0,2.26-.17,3.32.03,2.81.53,5.66,1,8.37,1.89,2.27.75,2.85,4.08,1.41,6.94-1.92,3.81-3.09,7.75-2.65,12.07.6,5.85,2.05,11.49,4.19,16.95,1.41,3.59,1.86,7.08-.29,10.6-1.24,2.03-3.11,2.8-5.24,2.9-4.41.2-8.67-.56-12.59-2.76-.32-.18-.68-.29-1.03-.39-7.38-2.19-13.46-6.67-19.6-11.05-.05-.04-.1-.07-.15-.11-1.3-1.16-2.12-3.23-4.47-2.44-1.67.56-3.31,1.2-4.96,1.82-.23.08-.43.24-.65.32-5.97,2.23-11.93,4.5-17.92,6.66-3.1,1.12-6.26,2.1-9.42,3.06-1.13.34-1.21,1.04-1.07,1.97.36,2.5.78,4.98,1.06,7.49.7,6.27-.13,12.12-4.6,17.05-1.34,1.48-2.27,3.33-3.45,4.97-1.38,1.93-3.27,3.06-5.68,2.84-2.65-.24-4.92-1.34-6.77-3.33-1.5-1.61-3.29-2.95-4.69-4.63-2.34-2.82-4.6-5.72-6.66-8.75-1.95-2.86-4.23-4.9-7.93-4.65-6.26.43-12.53.81-18.78,1.32-4.39.36-8.75,1.19-13.14,1.28-7.33.16-14.67-.11-22-.19-.3,0-.6.04-1.15.09.83,3.19,1.66,6.25,2.41,9.34.52,2.14,1.06,4.3,1.32,6.49.26,2.22-.2,4.4-2.44,5.52-2.4,1.21-4.58.28-6.54-1.17-2.25-1.66-4.38-3.48-6.63-5.15-4.92-3.65-9.83-7.3-14.84-10.82-1.02-.71-2.44-1.19-3.68-1.2-16.55-.05-33.02-1.16-49.39-3.56-4.48-.66-8.89-1.82-13.33-2.76-.65-.14-1.3-.29-1.92-.43,0,1.93.15,3.77-.03,5.58-.6,6.01-3.48,8.37-9.22,7.93-5.8-.44-10.36-3.44-14.82-6.71-2.12-1.55-4.29-3.05-6.28-4.75-3.96-3.37-8.04-6.64-11.66-10.35-2.93-3-5.23-6.59-7.87-9.88-.41-.52-1.12-1.06-1.73-1.12-5.52-.51-9.54-3.87-13.68-7-1.95-1.48-3.77-3.12-5.74-4.58-3.15-2.34-6.3-4.69-9.58-6.83-3.78-2.47-7.72-4.69-11.55-7.08-3.42-2.14-7.25-9.38-4.36-14.3,1.36-2.31,3.46-3.18,5.82-3.8.66-.17,1.29-.43,2.55-.86-2.05-2.11-3.63-3.93-5.42-5.51-2.28-2.02-2.4-6.77-.07-8.61,2.23-1.76,5.33-.99,6.93,1.69,2.04,3.41,3.93,6.94,6.24,10.17,2.44,3.4.99,9.99-3.97,10.71-1.4.2-2.72.95-4.67,2.03.56.27,1.14.5,1.67.81,1.47.87,2.94,1.73,4.36,2.66,5.27,3.46,10.61,6.81,15.74,10.46,4.27,3.03,8.14,6.63,12.49,9.55,1.82,1.22,4.37,1.54,6.64,1.86,2.44.33,3.65,1.51,4.69,3.71,1.21,2.56,2.85,5.04,4.81,7.08,3.6,3.74,7.39,7.35,11.43,10.61,4.31,3.48,8.92,6.6,13.56,9.63,1.44.95,3.4,1.11,5.13,1.63.21-.22.42-.44.63-.66-.53-1.13-.85-2.44-1.63-3.37-1.38-1.63-3.07-2.98-4.56-4.53-.88-.92-1.76-1.89-2.37-2.99-.9-1.63-.78-3.36.39-4.86,1.39-1.77,3.4-2.16,5.36-1.56,3.97,1.22,7.81,2.9,11.8,4.07,3.83,1.13,7.76,1.94,11.68,2.73,11.78,2.37,23.68,3.84,35.7,4.18,6.1.17,12.2.18,18.3.22,1.56.01,2.88.25,4.23,1.29,5.09,3.92,10.34,7.65,15.51,11.46.7.51,1.32,1.12,2.24,1.92-.71-3.66-1.49-6.89-1.92-10.16-.33-2.54-.26-5.15-.29-7.72,0-.65.17-1.4.52-1.93.87-1.33,1.84-2.64,3.68-2.67,1.93-.03,3.13,1.27,3.81,2.73.81,1.71,1.89,2.36,3.69,2.34,9.42-.08,18.86.13,28.27-.26,4.49-.19,8.91-1.67,13.41-2.24,5.07-.63,10.17-1.03,15.28.03,3.73.78,6.22,3.12,8.13,6.11,3.05,4.76,6.24,9.38,10.47,13.19.32.29.67.55,1.02.8.24.17.52.3.72.42,4.47-4.65,7.53-9.59,5.9-16.48-.79-3.37-.69-6.97-.76-10.47-.03-1.36.31-2.87.95-4.06.52-.96,1.74-2.19,2.65-2.19,4.06-.01,7.63-1.69,11.31-2.94,6.03-2.05,11.98-4.34,17.95-6.55,2.57-.95,5.06-2.13,7.68-2.89,3.64-1.06,6.81-.43,9.37,2.82,1.37,1.74,3.26,3.14,5.11,4.43,3.77,2.62,7.52,5.3,11.98,6.73,2.84.91,5.63,1.98,8.47,2.87.9.28,1.92.19,3.05.29-3.21-11.3-7.37-22.29-3.11-34.57-2.1.38-3.98.67-5.83,1.08-1.02.22-1.98.7-2.99.95-3.92,1-6.81-1.4-6.04-5.36.51-2.61,1.54-5.18,2.68-7.6,5.04-10.73,5.85-21.97,4.33-33.53-.04-.29-.19-.56.21-.22-2.42,2.05-4.88,4.06-7.25,6.17-1.91,1.7-3.61,3.66-5.6,5.25-3.82,3.05-8.03,5.66-11.63,8.95-3.72,3.4-7,7.31-10.27,11.17-2.59,3.05-5.04,6.02-9.06,7.47-2.79,1.01-5.27,1.53-8.03.16-1.53-.76-3.2-1.29-4.86-1.75-3.31-.92-4.71-3.81-4.91-6.61-.12-1.62-.26-3.24-.39-4.85-.17-.02-.33-.04-.5-.06-.56.88-.99,1.87-1.69,2.62-3.18,3.44-7.35,4.73-11.73,3.83-5.87-1.21-11.59-3.09-17.36-4.76-4.57-1.32-9.05-3.07-13.68-4.08-7.31-1.6-14.73-2.68-22.08-4.12-2.5-.49-4.95-1.31-7.35-2.19-3.1-1.13-4.59-3.6-5.39-6.72-.51-1.99-1.24-4-2.29-5.75-2.3-3.82-4.88-7.48-7.35-11.21-.27-.4-.55-.8-.58-.84-2.11,1.97-3.89,3.88-5.93,5.45-1.37,1.06-3.06,1.76-4.69,2.44-5.46,2.27-10.92,4.57-16.46,6.63-2.81,1.04-5.76.7-8.75.16-5.25-.96-10.57-1.59-15.87-2.23-12.07-1.44-24.16-2.43-36.33-2.52-9.66-.08-19.17,1.36-28.71,2.49-2.39.28-4.79.5-7.15.92-6.58,1.19-13.22,2.16-19.68,3.82-4.74,1.22-9.26,3.35-13.84,5.16-2.75,1.08-5.42,2.36-8.16,3.47-2.31.93-4.64,1.83-7.01,2.59-1.79.57-3.57.5-4.86-1.18-1.12-1.45-1.12-3.55.33-5.27.66-.78,1.92-1.12,2.96-1.52,2.65-1.03,5.34-1.95,7.99-2.96,1.67-.64,3.27-1.44,4.94-2.07,4.46-1.69,8.95-3.3,13.4-5.01,6.78-2.61,13.96-3.3,21.05-4.35,10.02-1.49,20.03-3.38,30.12-4.01,9.56-.59,19.22-.07,28.81.51,9.1.55,18.15,1.76,27.22,2.76,2.18.24,4.34.73,6.49,1.2,2.81.63,5.46.35,7.96-1.13.41-.24.94-.29,1.39-.48,4.9-2.08,9.81-4.15,14.69-6.27,2.17-.94,2.84-3.15,3.9-4.97,2.24-3.87,7.26-4.39,9.97-.87,2.46,3.2,4.94,6.39,7.16,9.75,2.73,4.14,5.57,8.25,6.51,13.3.36,1.93,2.08,2.39,3.74,2.66,4.87.78,9.77,1.35,14.6,2.3,6.74,1.32,13.49,2.7,20.12,4.47,5.59,1.49,10.97,3.75,16.54,5.32,2.3.65,4.85.5,7.29.55,1.59.03,2.2-.99,2.17-2.55-.04-2.45.3-4.69,2.52-6.4,1.52-1.16,3.15-1.28,4.46-.53,5.37,3.05,8.95,7.4,8.81,13.96-.02,1.13.31,1.66,1.4,1.97.91.26,1.71.88,2.6,1.24,1.53.62,2.83.46,4.48-.31,3.87-1.8,5.35-5.59,7.96-8.42,1.41-1.53,2.63-3.26,4.15-4.67,2.47-2.28,5.07-4.43,7.7-6.54,3.53-2.83,7.31-5.36,10.66-8.37,4.08-3.68,8.12-7.44,10.93-12.3,1.02-1.76,2.27-3.44,3.7-4.86.53-.52,2.04-.51,2.88-.18,2.39.95,3.42,2.94,3.68,5.48.62,5.99,1.7,11.95,1.94,17.95.34,8.78-.61,17.45-4.33,25.6-.13.28-.19.58-.25.88-.03.17,0,.35,0,.5Z"/>
  <path class="cls-1" d="M85.9,77.48c-.01,5.24-1.95,9.53-5.76,13.11-1.72,1.61-3.23,3.46-4.72,5.29-1.57,1.93-5.1,1.71-6.32-.49-1.42-2.58-1.11-4.55.94-6.68,1.98-2.06,3.98-4.11,5.8-6.31,2.12-2.55,1.95-5.59.83-8.39-.8-2-2.21-3.8-3.6-5.5-1.46-1.79-3.23-3.32-4.84-4.99-1.76-1.83-1.9-5.04-.35-6.75,1.6-1.75,4.37-2.05,6.32-.18,4.84,4.64,9.31,9.62,11.08,16.34.39,1.47.42,3.03.61,4.55Z"/>
  <path class="cls-1" d="M56.97,64.61c0,2.67-1.88,4.68-4.4,4.66-2.35-.02-4.04-1.79-4.11-4.31-.07-2.65,1.83-4.72,4.35-4.76,2.44-.04,4.15,1.78,4.16,4.4Z"/>
</svg>